<svg xmlns="http://www.w3.org/2000/svg" width="388" height="313" viewBox="0 0 388 313" version="1.1"><path d="M 191.739 44.250 C 189.724 45.782, 149.707 114.040, 150.411 114.744 C 151.965 116.298, 155.359 111.238, 172.470 81.852 C 182.832 64.058, 192.087 48.665, 193.037 47.645 C 194.096 46.508, 195.488 46.021, 196.632 46.386 C 197.765 46.747, 206.317 60.363, 218.369 80.991 C 235.313 109.994, 241 118.338, 241 114.195 C 241 113.038, 202.226 46.907, 200.300 44.779 C 198.431 42.714, 194.110 42.447, 191.739 44.250 M 216.701 51.500 C 218.279 54.808, 220 56.137, 220 54.047 C 220 51.975, 217.604 48, 216.356 48 C 215.324 48, 215.400 48.771, 216.701 51.500 M 170.987 52.032 C 170.296 53.700, 170.055 55.387, 170.451 55.782 C 171.334 56.661, 175 52.315, 175 50.389 C 175 47.839, 172.259 48.961, 170.987 52.032 M 165.649 61.413 C 163.815 64.211, 163.479 67, 164.974 67 C 165.510 67, 166.673 65.598, 167.559 63.885 C 169.620 59.901, 168.007 57.815, 165.649 61.413 M 222 60.277 C 222 62.268, 225.028 66.101, 226.084 65.448 C 226.631 65.110, 226.299 63.623, 225.300 61.931 C 223.484 58.857, 222 58.113, 222 60.277 M 228 70.050 C 228 72.390, 231.195 77.205, 232.128 76.272 C 232.740 75.660, 232.437 74.172, 231.293 72.163 C 229.506 69.023, 228 68.057, 228 70.050 M 158.703 73.169 C 157.315 75.608, 157.190 76.500, 158.155 77.096 C 159.359 77.840, 163 73.241, 163 70.976 C 163 68.858, 160.403 70.183, 158.703 73.169 M 234 80.550 C 234 81.942, 237.157 87, 238.026 87 C 239.342 87, 239.260 86.404, 237.474 82.950 C 236.154 80.398, 234 78.909, 234 80.550 M 152.529 83.943 C 151.498 85.938, 151.350 87.098, 152.070 87.543 C 152.655 87.905, 153.252 88.043, 153.398 87.850 C 155.088 85.618, 157 82.394, 157 81.777 C 157 79.802, 153.893 81.307, 152.529 83.943 M 146.606 94.090 C 145.338 96.236, 145.099 97.499, 145.824 98.224 C 146.548 98.948, 147.483 98.254, 148.882 95.954 C 150.761 92.864, 150.864 91, 149.157 91 C 148.758 91, 147.610 92.391, 146.606 94.090 M 240 91.596 C 240 92.765, 243.446 98, 244.216 98 C 245.471 98, 245.128 96.124, 243.385 93.465 C 241.906 91.208, 240 90.155, 240 91.596 M 246.611 101.821 C 246.332 102.272, 247.049 104.185, 248.205 106.071 C 250.705 110.150, 251.816 108.478, 249.535 104.068 C 247.859 100.827, 247.429 100.496, 246.611 101.821 M 140.615 104.465 C 138.668 107.437, 138.554 109, 140.284 109 C 141.802 109, 145.236 103.570, 144.307 102.640 C 143.169 101.502, 142.263 101.950, 140.615 104.465 M 135.553 112.915 C 135.231 113.436, 135.394 114.125, 135.915 114.447 C 136.436 114.769, 137.125 114.606, 137.447 114.085 C 137.769 113.564, 137.606 112.875, 137.085 112.553 C 136.564 112.231, 135.875 112.394, 135.553 112.915 M 253 112.941 C 253 113.459, 253.450 114.160, 254 114.500 C 254.550 114.840, 255 114.416, 255 113.559 C 255 112.702, 254.550 112, 254 112 C 253.450 112, 253 112.423, 253 112.941 M 87.706 122.627 C 87.318 123.015, 87 124.383, 87 125.667 C 87 127.489, 87.548 128, 89.500 128 L 92 128 92 141.500 L 92 155 89.500 155 C 87.389 155, 87 155.467, 87 158 L 87 161 95 161 L 103 161 103 158 C 103 155.467, 102.611 155, 100.500 155 L 98 155 98 141.500 L 98 128 100.566 128 C 102.776 128, 103.089 127.618, 102.816 125.250 C 102.508 122.572, 102.315 122.492, 95.456 122.210 C 91.582 122.051, 88.095 122.239, 87.706 122.627 M 114.458 123.248 C 114.180 123.974, 114.075 132.652, 114.226 142.534 L 114.500 160.500 125 160.500 L 135.500 160.500 135.500 141.500 L 135.500 122.500 125.232 122.215 C 117.448 121.999, 114.842 122.249, 114.458 123.248 M 141.458 123.248 C 141.180 123.974, 141.075 132.652, 141.226 142.534 L 141.500 160.500 144 160.500 C 146.426 160.500, 146.509 160.272, 146.792 152.750 L 147.084 145 152 145 L 156.916 145 157.208 152.750 C 157.495 160.379, 157.543 160.505, 160.250 160.816 L 163 161.133 163 152.566 C 163 144.096, 162.972 144, 160.500 144 C 158.500 144, 158 143.500, 158 141.500 C 158 139.489, 158.497 139, 160.540 139 C 163.079 139, 163.081 138.995, 162.790 130.750 L 162.500 122.500 152.232 122.215 C 144.448 121.999, 141.842 122.249, 141.458 123.248 M 169.152 122.863 C 167.082 124.208, 168.213 127.342, 171.005 128.001 L 173.500 128.590 173.500 141.500 L 173.500 154.410 171 155 C 169.173 155.431, 168.500 156.251, 168.500 158.045 C 168.500 160.447, 168.673 160.500, 176.500 160.500 C 184.431 160.500, 184.503 160.477, 184.809 157.822 C 185.073 155.540, 184.704 155.097, 182.309 154.822 L 179.500 154.500 179.500 141.500 L 179.500 128.500 182.309 128.178 C 184.704 127.903, 185.073 127.460, 184.809 125.178 C 184.510 122.587, 184.272 122.492, 177.500 122.243 C 173.650 122.101, 169.893 122.380, 169.152 122.863 M 222.472 123.213 C 222.186 123.958, 222.075 132.652, 222.226 142.534 L 222.500 160.500 225 160.500 C 227.426 160.500, 227.509 160.272, 227.792 152.750 L 228.084 145 233 145 L 237.916 145 238.208 152.750 C 238.495 160.379, 238.543 160.505, 241.250 160.816 L 244 161.133 244 152.566 C 244 144.096, 243.972 144, 241.500 144 C 239.500 144, 239 143.500, 239 141.500 C 239 139.500, 239.500 139, 241.500 139 C 243.957 139, 244 138.863, 244 131.059 C 244 122.819, 243.352 121.436, 239.991 122.503 C 238.222 123.064, 238 124.025, 238 131.122 L 238 139.110 233.250 138.805 L 228.500 138.500 228 130.500 C 227.540 123.138, 227.320 122.474, 225.246 122.180 C 224.006 122.004, 222.757 122.469, 222.472 123.213 M 250.227 122.839 C 249.254 123.456, 249.018 128.001, 249.227 142.073 L 249.500 160.500 260.500 160.500 L 271.500 160.500 271.500 158 C 271.500 155.583, 271.233 155.483, 263.500 155 L 255.500 154.500 255.197 149.804 L 254.895 145.108 260.197 144.804 C 265.123 144.522, 265.522 144.308, 265.811 141.804 C 266.111 139.208, 265.927 139.098, 260.811 138.804 L 255.500 138.500 255.500 133.500 L 255.500 128.500 263.490 128 C 270.294 127.574, 271.534 127.221, 271.839 125.620 C 272.036 124.586, 271.590 123.355, 270.848 122.885 C 269.136 121.800, 251.925 121.761, 250.227 122.839 M 277.227 122.825 C 276.255 123.452, 276.018 128.006, 276.227 142.073 L 276.500 160.500 279.216 160.813 L 281.931 161.126 282.216 150.313 C 282.486 140.042, 282.610 139.484, 284.696 139.188 C 286.689 138.904, 286.919 139.363, 287.196 144.188 C 287.480 149.152, 287.680 149.521, 290.250 149.816 C 292.878 150.119, 293 150.376, 293 155.633 C 293 161.043, 293.045 161.128, 295.750 160.816 L 298.500 160.500 298.772 141.824 C 299.038 123.552, 298.998 123.134, 296.921 122.475 C 293.753 121.470, 293.127 122.765, 292.799 131.001 C 292.523 137.910, 292.323 138.525, 290.250 138.820 C 288.151 139.118, 288 138.771, 288 133.636 C 288 128.397, 287.870 128.118, 285.290 127.816 C 283.353 127.590, 282.413 126.788, 281.996 125.005 C 281.381 122.374, 279.357 121.449, 277.227 122.825 M 120 141.500 L 120 155 125 155 L 130 155 130 141.500 L 130 128 125 128 L 120 128 120 141.500 M 147.198 133.250 L 147.500 138.500 152.250 138.805 L 157 139.110 157 133.555 L 157 128 151.948 128 L 146.895 128 147.198 133.250 M 117.818 169.750 C 114.717 173.388, 94 209.884, 94 211.709 C 94 212.759, 94.628 214.476, 95.395 215.525 C 96.606 217.181, 96.573 217.598, 95.145 218.685 C 93.806 219.703, 96.524 219.942, 109.750 219.968 C 118.688 219.986, 126 220.360, 126 220.800 C 126 222.821, 123.164 224, 118.300 224 C 115.385 224, 113 224.450, 113 225 C 113 225.550, 114.158 226, 115.573 226 C 117.485 226, 118.061 226.450, 117.812 227.750 C 117.535 229.206, 116.177 229.549, 109.739 229.792 C 105.483 229.953, 102 230.515, 102 231.042 C 102 231.638, 118.379 232, 145.333 232 L 188.665 232 191.953 236.091 L 195.240 240.181 199.408 236.091 L 203.576 232 246.229 232 C 273.586 232, 289.104 231.641, 289.500 231 C 289.891 230.368, 287.410 230, 282.759 230 C 275.943 230, 273 229.035, 273 226.800 C 273 226.360, 274.350 226, 276 226 C 281.756 226, 278.950 224.093, 272.760 223.798 C 267.754 223.559, 266.454 223.154, 266.187 221.750 C 265.881 220.144, 267.135 220, 281.427 220 C 291.142 220, 297 219.624, 297 219 C 297 218.450, 296.534 218, 295.965 218 C 295.251 218, 295.251 217.399, 295.965 216.066 C 296.534 215.002, 297 213.037, 297 211.699 C 297 209.013, 274.270 169.317, 272.299 168.561 C 271.620 168.301, 270.853 168.428, 270.596 168.845 C 270.339 169.261, 275.502 178.804, 282.070 190.051 C 288.660 201.336, 293.897 211.396, 293.756 212.500 C 293.502 214.483, 292.652 214.502, 195.859 214.755 C 107.950 214.984, 98.158 214.854, 97.616 213.442 C 96.877 211.516, 97.675 209.946, 110.638 187.794 C 116.337 178.056, 121 169.619, 121 169.044 C 121 167.458, 119.486 167.794, 117.818 169.750 M 102.607 170.582 C 101.765 172.776, 101.826 173, 103.259 173 C 103.952 173, 105.081 172.100, 105.768 171 C 106.853 169.263, 106.767 169, 105.115 169 C 104.070 169, 102.941 169.712, 102.607 170.582 M 285 169.794 C 285 170.323, 285.727 171.358, 286.615 172.096 C 288.013 173.256, 288.181 173.182, 287.865 171.551 C 287.489 169.607, 285 168.082, 285 169.794 M 97.441 179.115 C 95.405 183.050, 96.987 185.285, 99.384 181.862 C 101.176 179.304, 101.537 176, 100.026 176 C 99.490 176, 98.327 177.402, 97.441 179.115 M 165 177.937 C 165 178.452, 166.463 179.014, 168.250 179.187 C 170.729 179.426, 171.500 179.975, 171.500 181.500 C 171.500 183.025, 170.729 183.574, 168.250 183.813 C 165.119 184.115, 165 184.289, 165 188.563 L 165 193 169.583 193 C 174.633 193, 175.501 190.755, 170.673 190.184 C 166.649 189.707, 166.939 186, 171 186 C 173.889 186, 174 185.833, 174 181.500 L 174 177 169.500 177 C 167.025 177, 165 177.421, 165 177.937 M 181.208 184.750 L 181.500 192.500 186.250 192.805 L 191 193.110 191 185.055 L 191 177 185.958 177 L 180.916 177 181.208 184.750 M 198 177.937 C 198 178.452, 199.463 179.014, 201.250 179.187 C 203.729 179.426, 204.500 179.975, 204.500 181.500 C 204.500 183.025, 203.729 183.574, 201.250 183.813 C 198.119 184.115, 198 184.289, 198 188.563 L 198 193 202.583 193 C 207.787 193, 208.380 190.857, 203.418 189.990 C 199.352 189.280, 199.588 186.588, 203.750 186.187 C 206.881 185.885, 207 185.711, 207 181.437 L 207 177 202.500 177 C 200.025 177, 198 177.421, 198 177.937 M 214 177.937 C 214 178.452, 215.463 179.014, 217.250 179.187 C 219.741 179.427, 220.575 180.025, 220.820 181.750 C 221.081 183.594, 220.664 184, 218.511 184 C 217.013 184, 216.148 184.430, 216.500 185 C 216.840 185.550, 217.991 186, 219.059 186 C 220.312 186, 221 186.686, 221 187.937 C 221 189.379, 220.191 189.953, 217.827 190.187 C 216.082 190.359, 214.461 191.089, 214.224 191.809 C 213.901 192.793, 214.997 193.041, 218.647 192.809 L 223.500 192.500 223.792 184.750 L 224.084 177 219.042 177 C 216.269 177, 214 177.421, 214 177.937 M 290 177.550 C 290 179.232, 293.232 183.975, 294.039 183.476 C 295.168 182.778, 292.433 177, 290.974 177 C 290.438 177, 290 177.247, 290 177.550 M 184 180 C 184 180.550, 184.450 181, 185 181 C 185.550 181, 186 181.675, 186 182.500 C 186 183.325, 185.550 184, 185 184 C 184.450 184, 184 185.350, 184 187 C 184 189.333, 184.444 190, 186 190 C 188.223 190, 188.692 188.489, 186.750 187.583 C 185.750 187.117, 185.750 186.883, 186.750 186.417 C 187.438 186.096, 188 184.296, 188 182.417 C 188 179.667, 187.610 179, 186 179 C 184.900 179, 184 179.450, 184 180 M 91.615 189.465 C 89.649 192.465, 89.556 194, 91.339 194 C 92.601 194, 95 190.037, 95 187.953 C 95 186.194, 93.244 186.978, 91.615 189.465 M 296.007 188.750 C 296.010 189.162, 296.857 190.780, 297.889 192.345 C 299.095 194.174, 300.016 194.783, 300.468 194.051 C 301.255 192.778, 298.498 188, 296.977 188 C 296.440 188, 296.003 188.338, 296.007 188.750 M 180.007 219.705 C 180.011 220.142, 183.564 224.325, 187.903 229 L 195.791 237.500 201.252 231.500 C 204.255 228.200, 207.999 223.969, 209.573 222.098 L 212.434 218.696 208.467 219.420 C 205.694 219.926, 203.117 221.495, 199.905 224.632 L 195.309 229.120 191.405 224.651 C 188.525 221.355, 186.516 220.014, 183.750 219.545 C 181.688 219.196, 180.003 219.267, 180.007 219.705 M 127.607 221.582 C 127.273 222.452, 127 223.352, 127 223.582 C 127 223.812, 129.234 224, 131.965 224 C 135.906 224, 137.150 223.588, 138 222 C 139.009 220.114, 138.760 220, 133.642 220 C 129.615 220, 128.057 220.408, 127.607 221.582 M 140.667 220.667 C 140.300 221.033, 140 221.933, 140 222.667 C 140 223.733, 144 224, 160 224 C 171 224, 180 223.640, 180 223.200 C 180 220.470, 176.986 220, 159.467 220 C 149.493 220, 141.033 220.300, 140.667 220.667 M 191 220.826 C 191 221.280, 192.163 222.742, 193.585 224.076 L 196.170 226.500 198.085 224.139 C 200.903 220.665, 200.487 220, 195.500 220 C 193.025 220, 191 220.372, 191 220.826 M 212.232 222 C 210.998 223.976, 211.233 224, 231.492 224 C 242.771 224, 252 223.640, 252 223.200 C 252 220.471, 248.986 220, 231.541 220 C 214.564 220, 213.406 220.120, 212.232 222 M 253.393 221.582 C 253.727 222.452, 254 223.352, 254 223.582 C 254 223.812, 256.491 224, 259.535 224 C 264.760 224, 265.010 223.888, 264 222 C 263.146 220.404, 261.906 220, 257.858 220 C 253.644 220, 252.889 220.268, 253.393 221.582 M 120.667 226.667 C 120.300 227.033, 120 227.957, 120 228.719 C 120 230.969, 130.379 230.039, 130.814 227.750 C 131.094 226.276, 130.373 226, 126.240 226 C 123.541 226, 121.033 226.300, 120.667 226.667 M 133.667 226.667 C 133.300 227.033, 133 227.933, 133 228.667 C 133 229.744, 138 230, 159 230 C 173.300 230, 185 229.640, 185 229.200 C 185 226.361, 182.008 226, 158.467 226 C 145.193 226, 134.033 226.300, 133.667 226.667 M 207.200 227.200 C 206.540 227.860, 206 228.760, 206 229.200 C 206 229.640, 217.973 230, 232.607 230 C 256.458 230, 259.151 229.836, 258.607 228.418 C 258.273 227.548, 258 226.648, 258 226.418 C 258 226.188, 246.840 226, 233.200 226 C 215.244 226, 208.069 226.331, 207.200 227.200 M 260 226.800 C 260 228.779, 262.787 230, 267.307 230 C 271.371 230, 272.110 229.728, 271.607 228.418 C 271.273 227.548, 271 226.648, 271 226.418 C 271 226.188, 268.525 226, 265.500 226 C 262.475 226, 260 226.360, 260 226.800" stroke="none" fill="#6c9dd3" fill-rule="evenodd"/><path d="M 0 156.503 L 0 313.005 194.250 312.753 L 388.500 312.500 388.753 156.250 L 389.006 0 194.503 0 L 0 0 0 156.503 M 0.488 157 C 0.488 243.075, 0.606 278.287, 0.750 235.250 C 0.894 192.212, 0.894 121.787, 0.750 78.750 C 0.606 35.712, 0.488 70.925, 0.488 157 M 191.739 44.250 C 189.724 45.782, 149.707 114.040, 150.411 114.744 C 151.965 116.298, 155.359 111.238, 172.470 81.852 C 182.832 64.058, 192.087 48.665, 193.037 47.645 C 194.096 46.508, 195.488 46.021, 196.632 46.386 C 197.765 46.747, 206.317 60.363, 218.369 80.991 C 235.313 109.994, 241 118.338, 241 114.195 C 241 113.038, 202.226 46.907, 200.300 44.779 C 198.431 42.714, 194.110 42.447, 191.739 44.250 M 216.701 51.500 C 218.279 54.808, 220 56.137, 220 54.047 C 220 51.975, 217.604 48, 216.356 48 C 215.324 48, 215.400 48.771, 216.701 51.500 M 170.987 52.032 C 170.296 53.700, 170.055 55.387, 170.451 55.782 C 171.334 56.661, 175 52.315, 175 50.389 C 175 47.839, 172.259 48.961, 170.987 52.032 M 165.649 61.413 C 163.815 64.211, 163.479 67, 164.974 67 C 165.510 67, 166.673 65.598, 167.559 63.885 C 169.620 59.901, 168.007 57.815, 165.649 61.413 M 222 60.277 C 222 62.268, 225.028 66.101, 226.084 65.448 C 226.631 65.110, 226.299 63.623, 225.300 61.931 C 223.484 58.857, 222 58.113, 222 60.277 M 228 70.050 C 228 72.390, 231.195 77.205, 232.128 76.272 C 232.740 75.660, 232.437 74.172, 231.293 72.163 C 229.506 69.023, 228 68.057, 228 70.050 M 158.703 73.169 C 157.315 75.608, 157.190 76.500, 158.155 77.096 C 159.359 77.840, 163 73.241, 163 70.976 C 163 68.858, 160.403 70.183, 158.703 73.169 M 234 80.550 C 234 81.942, 237.157 87, 238.026 87 C 239.342 87, 239.260 86.404, 237.474 82.950 C 236.154 80.398, 234 78.909, 234 80.550 M 152.529 83.943 C 151.498 85.938, 151.350 87.098, 152.070 87.543 C 152.655 87.905, 153.252 88.043, 153.398 87.850 C 155.088 85.618, 157 82.394, 157 81.777 C 157 79.802, 153.893 81.307, 152.529 83.943 M 146.606 94.090 C 145.338 96.236, 145.099 97.499, 145.824 98.224 C 146.548 98.948, 147.483 98.254, 148.882 95.954 C 150.761 92.864, 150.864 91, 149.157 91 C 148.758 91, 147.610 92.391, 146.606 94.090 M 240 91.596 C 240 92.765, 243.446 98, 244.216 98 C 245.471 98, 245.128 96.124, 243.385 93.465 C 241.906 91.208, 240 90.155, 240 91.596 M 246.611 101.821 C 246.332 102.272, 247.049 104.185, 248.205 106.071 C 250.705 110.150, 251.816 108.478, 249.535 104.068 C 247.859 100.827, 247.429 100.496, 246.611 101.821 M 140.615 104.465 C 138.668 107.437, 138.554 109, 140.284 109 C 141.802 109, 145.236 103.570, 144.307 102.640 C 143.169 101.502, 142.263 101.950, 140.615 104.465 M 135.553 112.915 C 135.231 113.436, 135.394 114.125, 135.915 114.447 C 136.436 114.769, 137.125 114.606, 137.447 114.085 C 137.769 113.564, 137.606 112.875, 137.085 112.553 C 136.564 112.231, 135.875 112.394, 135.553 112.915 M 253 112.941 C 253 113.459, 253.450 114.160, 254 114.500 C 254.550 114.840, 255 114.416, 255 113.559 C 255 112.702, 254.550 112, 254 112 C 253.450 112, 253 112.423, 253 112.941 M 87.706 122.627 C 87.318 123.015, 87 124.383, 87 125.667 C 87 127.489, 87.548 128, 89.500 128 L 92 128 92 141.500 L 92 155 89.500 155 C 87.389 155, 87 155.467, 87 158 L 87 161 95 161 L 103 161 103 158 C 103 155.467, 102.611 155, 100.500 155 L 98 155 98 141.500 L 98 128 100.566 128 C 102.776 128, 103.089 127.618, 102.816 125.250 C 102.508 122.572, 102.315 122.492, 95.456 122.210 C 91.582 122.051, 88.095 122.239, 87.706 122.627 M 114.458 123.248 C 114.180 123.974, 114.075 132.652, 114.226 142.534 L 114.500 160.500 125 160.500 L 135.500 160.500 135.500 141.500 L 135.500 122.500 125.232 122.215 C 117.448 121.999, 114.842 122.249, 114.458 123.248 M 141.458 123.248 C 141.180 123.974, 141.075 132.652, 141.226 142.534 L 141.500 160.500 144 160.500 C 146.426 160.500, 146.509 160.272, 146.792 152.750 L 147.084 145 152 145 L 156.916 145 157.208 152.750 C 157.495 160.379, 157.543 160.505, 160.250 160.816 L 163 161.133 163 152.566 C 163 144.096, 162.972 144, 160.500 144 C 158.500 144, 158 143.500, 158 141.500 C 158 139.489, 158.497 139, 160.540 139 C 163.079 139, 163.081 138.995, 162.790 130.750 L 162.500 122.500 152.232 122.215 C 144.448 121.999, 141.842 122.249, 141.458 123.248 M 169.152 122.863 C 167.082 124.208, 168.213 127.342, 171.005 128.001 L 173.500 128.590 173.500 141.500 L 173.500 154.410 171 155 C 169.173 155.431, 168.500 156.251, 168.500 158.045 C 168.500 160.447, 168.673 160.500, 176.500 160.500 C 184.431 160.500, 184.503 160.477, 184.809 157.822 C 185.073 155.540, 184.704 155.097, 182.309 154.822 L 179.500 154.500 179.500 141.500 L 179.500 128.500 182.309 128.178 C 184.704 127.903, 185.073 127.460, 184.809 125.178 C 184.510 122.587, 184.272 122.492, 177.500 122.243 C 173.650 122.101, 169.893 122.380, 169.152 122.863 M 222.472 123.213 C 222.186 123.958, 222.075 132.652, 222.226 142.534 L 222.500 160.500 225 160.500 C 227.426 160.500, 227.509 160.272, 227.792 152.750 L 228.084 145 233 145 L 237.916 145 238.208 152.750 C 238.495 160.379, 238.543 160.505, 241.250 160.816 L 244 161.133 244 152.566 C 244 144.096, 243.972 144, 241.500 144 C 239.500 144, 239 143.500, 239 141.500 C 239 139.500, 239.500 139, 241.500 139 C 243.957 139, 244 138.863, 244 131.059 C 244 122.819, 243.352 121.436, 239.991 122.503 C 238.222 123.064, 238 124.025, 238 131.122 L 238 139.110 233.250 138.805 L 228.500 138.500 228 130.500 C 227.540 123.138, 227.320 122.474, 225.246 122.180 C 224.006 122.004, 222.757 122.469, 222.472 123.213 M 250.227 122.839 C 249.254 123.456, 249.018 128.001, 249.227 142.073 L 249.500 160.500 260.500 160.500 L 271.500 160.500 271.500 158 C 271.500 155.583, 271.233 155.483, 263.500 155 L 255.500 154.500 255.197 149.804 L 254.895 145.108 260.197 144.804 C 265.123 144.522, 265.522 144.308, 265.811 141.804 C 266.111 139.208, 265.927 139.098, 260.811 138.804 L 255.500 138.500 255.500 133.500 L 255.500 128.500 263.490 128 C 270.294 127.574, 271.534 127.221, 271.839 125.620 C 272.036 124.586, 271.590 123.355, 270.848 122.885 C 269.136 121.800, 251.925 121.761, 250.227 122.839 M 277.227 122.825 C 276.255 123.452, 276.018 128.006, 276.227 142.073 L 276.500 160.500 279.216 160.813 L 281.931 161.126 282.216 150.313 C 282.486 140.042, 282.610 139.484, 284.696 139.188 C 286.689 138.904, 286.919 139.363, 287.196 144.188 C 287.480 149.152, 287.680 149.521, 290.250 149.816 C 292.878 150.119, 293 150.376, 293 155.633 C 293 161.043, 293.045 161.128, 295.750 160.816 L 298.500 160.500 298.772 141.824 C 299.038 123.552, 298.998 123.134, 296.921 122.475 C 293.753 121.470, 293.127 122.765, 292.799 131.001 C 292.523 137.910, 292.323 138.525, 290.250 138.820 C 288.151 139.118, 288 138.771, 288 133.636 C 288 128.397, 287.870 128.118, 285.290 127.816 C 283.353 127.590, 282.413 126.788, 281.996 125.005 C 281.381 122.374, 279.357 121.449, 277.227 122.825 M 120 141.500 L 120 155 125 155 L 130 155 130 141.500 L 130 128 125 128 L 120 128 120 141.500 M 147.198 133.250 L 147.500 138.500 152.250 138.805 L 157 139.110 157 133.555 L 157 128 151.948 128 L 146.895 128 147.198 133.250 M 117.818 169.750 C 114.717 173.388, 94 209.884, 94 211.709 C 94 212.759, 94.628 214.476, 95.395 215.525 C 96.606 217.181, 96.573 217.598, 95.145 218.685 C 93.806 219.703, 96.524 219.942, 109.750 219.968 C 118.688 219.986, 126 220.360, 126 220.800 C 126 222.821, 123.164 224, 118.300 224 C 115.385 224, 113 224.450, 113 225 C 113 225.550, 114.158 226, 115.573 226 C 117.485 226, 118.061 226.450, 117.812 227.750 C 117.535 229.206, 116.177 229.549, 109.739 229.792 C 105.483 229.953, 102 230.515, 102 231.042 C 102 231.638, 118.379 232, 145.333 232 L 188.665 232 191.953 236.091 L 195.240 240.181 199.408 236.091 L 203.576 232 246.229 232 C 273.586 232, 289.104 231.641, 289.500 231 C 289.891 230.368, 287.410 230, 282.759 230 C 275.943 230, 273 229.035, 273 226.800 C 273 226.360, 274.350 226, 276 226 C 281.756 226, 278.950 224.093, 272.760 223.798 C 267.754 223.559, 266.454 223.154, 266.187 221.750 C 265.881 220.144, 267.135 220, 281.427 220 C 291.142 220, 297 219.624, 297 219 C 297 218.450, 296.534 218, 295.965 218 C 295.251 218, 295.251 217.399, 295.965 216.066 C 296.534 215.002, 297 213.037, 297 211.699 C 297 209.013, 274.270 169.317, 272.299 168.561 C 271.620 168.301, 270.853 168.428, 270.596 168.845 C 270.339 169.261, 275.502 178.804, 282.070 190.051 C 288.660 201.336, 293.897 211.396, 293.756 212.500 C 293.502 214.483, 292.652 214.502, 195.859 214.755 C 107.950 214.984, 98.158 214.854, 97.616 213.442 C 96.877 211.516, 97.675 209.946, 110.638 187.794 C 116.337 178.056, 121 169.619, 121 169.044 C 121 167.458, 119.486 167.794, 117.818 169.750 M 102.607 170.582 C 101.765 172.776, 101.826 173, 103.259 173 C 103.952 173, 105.081 172.100, 105.768 171 C 106.853 169.263, 106.767 169, 105.115 169 C 104.070 169, 102.941 169.712, 102.607 170.582 M 285 169.794 C 285 170.323, 285.727 171.358, 286.615 172.096 C 288.013 173.256, 288.181 173.182, 287.865 171.551 C 287.489 169.607, 285 168.082, 285 169.794 M 97.441 179.115 C 95.405 183.050, 96.987 185.285, 99.384 181.862 C 101.176 179.304, 101.537 176, 100.026 176 C 99.490 176, 98.327 177.402, 97.441 179.115 M 165 177.937 C 165 178.452, 166.463 179.014, 168.250 179.187 C 170.729 179.426, 171.500 179.975, 171.500 181.500 C 171.500 183.025, 170.729 183.574, 168.250 183.813 C 165.119 184.115, 165 184.289, 165 188.563 L 165 193 169.583 193 C 174.633 193, 175.501 190.755, 170.673 190.184 C 166.649 189.707, 166.939 186, 171 186 C 173.889 186, 174 185.833, 174 181.500 L 174 177 169.500 177 C 167.025 177, 165 177.421, 165 177.937 M 181.208 184.750 L 181.500 192.500 186.250 192.805 L 191 193.110 191 185.055 L 191 177 185.958 177 L 180.916 177 181.208 184.750 M 198 177.937 C 198 178.452, 199.463 179.014, 201.250 179.187 C 203.729 179.426, 204.500 179.975, 204.500 181.500 C 204.500 183.025, 203.729 183.574, 201.250 183.813 C 198.119 184.115, 198 184.289, 198 188.563 L 198 193 202.583 193 C 207.787 193, 208.380 190.857, 203.418 189.990 C 199.352 189.280, 199.588 186.588, 203.750 186.187 C 206.881 185.885, 207 185.711, 207 181.437 L 207 177 202.500 177 C 200.025 177, 198 177.421, 198 177.937 M 214 177.937 C 214 178.452, 215.463 179.014, 217.250 179.187 C 219.741 179.427, 220.575 180.025, 220.820 181.750 C 221.081 183.594, 220.664 184, 218.511 184 C 217.013 184, 216.148 184.430, 216.500 185 C 216.840 185.550, 217.991 186, 219.059 186 C 220.312 186, 221 186.686, 221 187.937 C 221 189.379, 220.191 189.953, 217.827 190.187 C 216.082 190.359, 214.461 191.089, 214.224 191.809 C 213.901 192.793, 214.997 193.041, 218.647 192.809 L 223.500 192.500 223.792 184.750 L 224.084 177 219.042 177 C 216.269 177, 214 177.421, 214 177.937 M 290 177.550 C 290 179.232, 293.232 183.975, 294.039 183.476 C 295.168 182.778, 292.433 177, 290.974 177 C 290.438 177, 290 177.247, 290 177.550 M 184 180 C 184 180.550, 184.450 181, 185 181 C 185.550 181, 186 181.675, 186 182.500 C 186 183.325, 185.550 184, 185 184 C 184.450 184, 184 185.350, 184 187 C 184 189.333, 184.444 190, 186 190 C 188.223 190, 188.692 188.489, 186.750 187.583 C 185.750 187.117, 185.750 186.883, 186.750 186.417 C 187.438 186.096, 188 184.296, 188 182.417 C 188 179.667, 187.610 179, 186 179 C 184.900 179, 184 179.450, 184 180 M 91.615 189.465 C 89.649 192.465, 89.556 194, 91.339 194 C 92.601 194, 95 190.037, 95 187.953 C 95 186.194, 93.244 186.978, 91.615 189.465 M 296.007 188.750 C 296.010 189.162, 296.857 190.780, 297.889 192.345 C 299.095 194.174, 300.016 194.783, 300.468 194.051 C 301.255 192.778, 298.498 188, 296.977 188 C 296.440 188, 296.003 188.338, 296.007 188.750 M 180.007 219.705 C 180.011 220.142, 183.564 224.325, 187.903 229 L 195.791 237.500 201.252 231.500 C 204.255 228.200, 207.999 223.969, 209.573 222.098 L 212.434 218.696 208.467 219.420 C 205.694 219.926, 203.117 221.495, 199.905 224.632 L 195.309 229.120 191.405 224.651 C 188.525 221.355, 186.516 220.014, 183.750 219.545 C 181.688 219.196, 180.003 219.267, 180.007 219.705 M 127.607 221.582 C 127.273 222.452, 127 223.352, 127 223.582 C 127 223.812, 129.234 224, 131.965 224 C 135.906 224, 137.150 223.588, 138 222 C 139.009 220.114, 138.760 220, 133.642 220 C 129.615 220, 128.057 220.408, 127.607 221.582 M 140.667 220.667 C 140.300 221.033, 140 221.933, 140 222.667 C 140 223.733, 144 224, 160 224 C 171 224, 180 223.640, 180 223.200 C 180 220.470, 176.986 220, 159.467 220 C 149.493 220, 141.033 220.300, 140.667 220.667 M 191 220.826 C 191 221.280, 192.163 222.742, 193.585 224.076 L 196.170 226.500 198.085 224.139 C 200.903 220.665, 200.487 220, 195.500 220 C 193.025 220, 191 220.372, 191 220.826 M 212.232 222 C 210.998 223.976, 211.233 224, 231.492 224 C 242.771 224, 252 223.640, 252 223.200 C 252 220.471, 248.986 220, 231.541 220 C 214.564 220, 213.406 220.120, 212.232 222 M 253.393 221.582 C 253.727 222.452, 254 223.352, 254 223.582 C 254 223.812, 256.491 224, 259.535 224 C 264.760 224, 265.010 223.888, 264 222 C 263.146 220.404, 261.906 220, 257.858 220 C 253.644 220, 252.889 220.268, 253.393 221.582 M 120.667 226.667 C 120.300 227.033, 120 227.957, 120 228.719 C 120 230.969, 130.379 230.039, 130.814 227.750 C 131.094 226.276, 130.373 226, 126.240 226 C 123.541 226, 121.033 226.300, 120.667 226.667 M 133.667 226.667 C 133.300 227.033, 133 227.933, 133 228.667 C 133 229.744, 138 230, 159 230 C 173.300 230, 185 229.640, 185 229.200 C 185 226.361, 182.008 226, 158.467 226 C 145.193 226, 134.033 226.300, 133.667 226.667 M 207.200 227.200 C 206.540 227.860, 206 228.760, 206 229.200 C 206 229.640, 217.973 230, 232.607 230 C 256.458 230, 259.151 229.836, 258.607 228.418 C 258.273 227.548, 258 226.648, 258 226.418 C 258 226.188, 246.840 226, 233.200 226 C 215.244 226, 208.069 226.331, 207.200 227.200 M 260 226.800 C 260 228.779, 262.787 230, 267.307 230 C 271.371 230, 272.110 229.728, 271.607 228.418 C 271.273 227.548, 271 226.648, 271 226.418 C 271 226.188, 268.525 226, 265.500 226 C 262.475 226, 260 226.360, 260 226.800" stroke="none" fill="#040d1c" fill-rule="evenodd"/></svg>